<svg width="900" height="300" xmlns="http://www.w3.org/2000/svg">
  <g fill="#000" fill-rule="evenodd">
    <path d="M10.47 100.64c8.97.2 17.94.24 26.91.24 7.48 19.27 14.49 38.78 21.87 58.09 7.27-19 14.28-38.14 21.49-57.21 8.7 0 17.4 0 26.1-.03-12.9 32.78-25.4 65.7-38.22 98.5H49.77c-13.37-33.1-24.91-66.94-39.3-99.59zM434.2 109.55c7.07-6.3 16.3-10.8 25.85-11.41 13.74 1.38 26.03 8.67 37 16.66a894.75 894.75 0 0 0-14.86 19c-8.7-6.37-20.48-16.12-31.38-8.43.07 1.35.17 4.1.2 5.45 12.5 8.37 29.32 9.45 39.67 21.14 11.2 12.94 6.06 34.88-8.83 42.74-20.55 11.92-47.08 3.42-61.74-13.95 5.39-6.34 10.8-12.64 16.15-18.97 7.34 10.97 23.52 21.78 35.6 11.18l.24-4.5c-11.3-9.36-27.75-9.73-38.28-20.4-10.83-10-10.36-28.62.37-38.51z"/>
    <path d="M637.74 100.03c30.77-8.23 65.1 19.61 61.67 52.06.54 30.52-31.07 54.03-60.24 47.25-25.46-3.18-44.2-28.65-41.1-53.89.89-22.25 18.52-40.54 39.67-45.42zm3.22 23.81c-22.37 5.9-24.57 41.5-3.66 50.67 15.98 8.57 37.24-4.13 37.34-22.25 2.7-18.15-16.11-34.75-33.68-28.42z" fill-rule="nonzero"/>
    <path d="M125.58 100.81c7.96.04 15.91.04 23.87.04.1 33.12 0 66.25.03 99.37h-24.17c.24-33.12-.23-66.28.27-99.4z"/>
    <path d="M176.56 199.2c.1-33.22-.04-66.41.06-99.64 20.21 1.18 42.85-4.17 60.86 7.69 12.39 9.1 11.85 27.3 3.52 39.02 6.57 7.1 11.98 16.22 10.36 26.31-.88 14.3-13.91 25.24-27.72 26.12-15.67 1.22-31.41.27-47.08.5zm24.23-76.4c-.03 4.94-.03 9.88 0 14.83 7.85-.1 26.06 1.62 21.05-11.45-5.95-4.6-14.08-2.57-21.05-3.39zm.07 36.74c-.07 5.76-.1 11.49-.1 17.21 7.95-.58 16.62 1.29 23.96-2.68 4.94-4.53 1.29-12.97-5.08-13.58-6.22-.98-12.52-.74-18.78-.95z" fill-rule="nonzero"/>
    <path d="M276.23 100.85c22.38 0 44.75 0 67.12-.04.14 7.72.2 15.41.27 23.14-14.42.03-28.84 0-43.25 0v15.5h35.43c-.03 7.53-.03 15.05-.03 22.57H300.4c-.03 5.11-.03 10.2-.07 15.3h45.83c-.03 7.63-.07 15.28-.03 22.9h-70c.07-33.12-.1-66.25.1-99.37zM511.43 100.81c25.42.07 50.8.04 76.22 0 .14 7.72.24 15.41.3 23.1-8.93.04-17.86.04-26.77.04.07 25.43-.03 50.84.07 76.27h-24.23c.07-25.4-.14-50.84.13-76.24-8.9-.03-17.8-.03-26.7-.14.2-7.69.54-15.34.98-23.03zM818.48 100.85c22.3 0 44.61.03 66.92-.04.17 7.69.23 15.41.34 23.1-14.32.07-28.64 0-42.92.07 0 5.15.03 10.33.07 15.48 11.67 0 23.38 0 35.13.03-.04 7.52-.07 15.04-.07 22.53h-34.83c-.17 5.08-.34 10.16-.47 15.24 15.74.13 31.51 0 47.25.1-.07 7.62-.1 15.24-.1 22.86h-71.42c.07-33.12-.1-66.25.1-99.37z"/>
    <path d="M716.13 101.8c18.25.94 37.13-2.48 54.93 2.43 25.25 9.38 24.81 48.44 1.46 60.06 9.1 11.75 17.53 24.01 26.33 35.97-9.88-.04-19.76-.04-29.65-.07-9.34-11.72-15.7-26.39-28.46-34.92-.37 11.65-.27 23.3-.2 34.95h-24.27c0-20.08.03-40.13-.04-60.22l12.97.03c-8.74-11.1-16.08-23.43-13.07-38.24zm27.35 21.77c4.64 7.52 9.3 14.97 14.25 22.29 4.87-4.27 10.09-9.79 7.24-16.87-5.14-6.57-14.28-4.57-21.49-5.42z" fill-rule="nonzero"/>
  </g>
</svg>
